<?xml version="1.0" encoding="utf-8"?>
<!-- Generator: Adobe Illustrator 16.0.0, SVG Export Plug-In . SVG Version: 6.00 Build 0)  -->
<!DOCTYPE svg PUBLIC "-//W3C//DTD SVG 1.1//EN" "http://www.w3.org/Graphics/SVG/1.1/DTD/svg11.dtd">
<svg version="1.1" id="Layer_1" xmlns="http://www.w3.org/2000/svg" xmlns:xlink="http://www.w3.org/1999/xlink" x="0px" y="0px"
	 width="201.5px" height="61.167px" viewBox="0 0 201.5 61.167" enable-background="new 0 0 201.5 61.167" xml:space="preserve">
<path fill="#FFFFFF" d="M178.931,26.13l-0.009-4.666h-14.597c0,0-4.966-0.182-5.15,4.631v4.998c0,0-0.486,5.422,5.484,5.422h17.769
	c0,0,8.804,0.093,8.834-9.443v-8.96c0,0-0.059-7.361-9.597-7.346c0,0-8.134-0.607-18.102,1.922l1.035,3.016
	c0,0,9.783-1.918,17.553-0.518c0,0,4.602,0.671,4.602,3.594l0.014,8.147c0,0,0.237,4.877-4.493,4.896h-17.338
	c0,0-1.402,0.095-1.402-1.249v-3.322c0,0-0.093-1.127,1.402-1.127L178.931,26.13z"/>
<polygon fill="#FFFFFF" points="47.34,12.48 47.34,17.322 53.141,17.322 53.141,37.788 58.579,37.79 58.579,3.536 53.139,3.536 
	53.139,12.48 "/>
<path fill="#FFFFFF" d="M70.534,22.413v4.02h18.832c0,0,5.062-0.106,5.026-5.062V16.9c0,0-0.141-5.24-6.452-5.205H71.402
	c0,0-8.982,0.139-8.982,7.905l-0.264,8.376c0,0-0.647,9.658,17.158,10.545c0,0,5.81,0.658,14.721-2.483l-1.362-3.047
	c0,0-9.941,3.047-18.707,0.751c0,0-6.984-1.686-6.984-6.516v-7.313c0,0-0.323-3.468,5.254-3.468h15.141c0,0,2.444-0.117,2.438,1.779
	l0.002,2.485c0,0,0.063,1.726-1.926,1.738L70.534,22.413z"/>
<path fill="#FFFFFF" d="M120.424,36.618v-4.587h-13.329c-4.768,0-4.643-4.093-4.643-4.093v-8.012c0-3.853,4.461-3.853,4.461-3.853
	h13.635c4.876-0.044,4.707,4.647,4.707,4.647l0.368,15.225c0.672,16.198-10.026,22.067-10.026,22.067l1.649,2.997
	c14.665-7.417,13.08-23.661,13.08-23.661l-0.608-17.422c-0.005-8.761-8.806-8.209-8.806-8.209h-13.97c-9.21,0-9.255,8.01-9.255,8.01
	v8.519c0,0-0.063,8.401,9.443,8.401L120.424,36.618z"/>
<path fill="#FFFFFF" d="M134.357,36.172h4.494l-0.524-15.036c0,0-0.723-5.284,4.996-5.86c0,0,8.691-1.198,16.714,0.433l1.01-2.931
	c0,0-11.959-3.363-21.038-1.201c0,0-6.438,0.912-6.438,8.019L134.357,36.172z"/>
<path fill="#FFFFFF" d="M20.719,27.294l-0.016-4.674H6.11c0,0-4.966-0.184-5.15,4.631v5c0,0-0.486,5.42,5.482,5.42h17.766
	c0,0,8.808,0.097,8.837-9.443v-8.961c0,0-0.058-7.356-9.596-7.341c0,0-8.138-0.608-18.102,1.917l1.036,3.019
	c0,0,9.785-1.92,17.552-0.516c0,0,4.603,0.668,4.603,3.595l0.009,8.147c0,0,0.241,4.87-4.486,4.895H6.718
	c0,0-1.401,0.087-1.401-1.253v-3.318c0,0-0.092-1.129,1.401-1.129L20.719,27.294z"/>
<rect x="38.399" y="3.49" fill="#FFFFFF" width="5.38" height="34.373"/>
<path fill="#FFFFFF" d="M196.93,17.71c-2.21,0-4.011-1.805-4.011-4.012c0-2.223,1.801-4.022,4.011-4.022
	c2.215,0,4.02,1.799,4.02,4.022C200.95,15.905,199.146,17.71,196.93,17.71 M196.93,10.298c-1.867,0-3.399,1.516-3.399,3.4
	c0,1.872,1.532,3.387,3.399,3.387c1.879,0,3.398-1.515,3.398-3.387C200.328,11.814,198.81,10.298,196.93,10.298"/>
<path fill="#FFFFFF" d="M195.567,11.343c0.167-0.021,0.349-0.039,0.54-0.049c0.192-0.011,0.377-0.013,0.554-0.013
	c0.634,0,1.091,0.108,1.37,0.321c0.282,0.215,0.417,0.554,0.417,1.005c0,0.198-0.023,0.374-0.082,0.522
	c-0.053,0.154-0.13,0.29-0.223,0.404c-0.091,0.114-0.203,0.202-0.324,0.277c-0.122,0.072-0.253,0.127-0.393,0.159l1.274,2.016
	c-0.048,0.024-0.101,0.042-0.163,0.051c-0.057,0.01-0.114,0.012-0.165,0.012c-0.213,0-0.378-0.091-0.496-0.271l-1.084-1.701h-0.622
	v1.909h-0.604V11.343z M196.668,13.565c0.171,0,0.327-0.018,0.466-0.05c0.139-0.033,0.26-0.085,0.361-0.158
	c0.102-0.076,0.181-0.173,0.237-0.285c0.056-0.121,0.083-0.257,0.083-0.427c0-0.172-0.027-0.312-0.081-0.426
	c-0.05-0.108-0.128-0.2-0.229-0.258c-0.101-0.065-0.219-0.108-0.362-0.134c-0.14-0.021-0.296-0.033-0.469-0.033
	c-0.106,0-0.202,0.004-0.283,0.008c-0.081,0.004-0.155,0.011-0.221,0.021v1.742H196.668z"/>
<path fill="#FFFFFF" d="M1.603,47.316c-0.353,0-0.652-0.254-0.652-0.627c0-0.36,0.299-0.622,0.652-0.622
	c0.343,0,0.643,0.262,0.643,0.622C2.246,47.062,1.945,47.316,1.603,47.316 M2.147,51.771H1.054v-3.944h1.093V51.771z"/>
<path fill="#FFFFFF" d="M4.569,47.827h1.098v0.36c0.207-0.246,0.595-0.445,1.052-0.445c0.894,0,1.396,0.583,1.396,1.455v2.574H7.021
	v-2.35c0-0.409-0.209-0.693-0.645-0.693c-0.333,0-0.626,0.202-0.709,0.546v2.497H4.569V47.827z"/>
<polygon fill="#FFFFFF" points="11.997,51.771 10.905,51.771 10.905,48.71 10.152,48.71 10.152,47.827 10.905,47.827 10.905,46.76 
	11.997,46.76 11.997,47.827 12.834,47.827 12.834,48.71 11.997,48.71 "/>
<path fill="#FFFFFF" d="M15.735,50.047c0.091,0.647,0.56,0.912,1.139,0.912c0.433,0,0.744-0.099,1.129-0.343v0.897
	c-0.327,0.242-0.765,0.343-1.297,0.343c-1.196,0-2.018-0.775-2.018-2.024c0-1.24,0.775-2.09,1.851-2.09
	c1.146,0,1.736,0.79,1.736,1.953v0.353H15.735z M15.772,49.336h1.493C17.238,48.912,17,48.61,16.566,48.61
	C16.205,48.61,15.895,48.844,15.772,49.336"/>
<path fill="#FFFFFF" d="M23.003,51.318c-0.175,0.206-0.519,0.395-0.961,0.395c-1.139,0-1.782-0.91-1.782-1.983
	c0-1.075,0.643-1.987,1.782-1.987c0.442,0,0.786,0.192,0.961,0.391v-0.306h1.093v3.51c0,1.447-1.066,1.976-2.142,1.976
	c-0.538,0-1.041-0.132-1.36-0.335v-1.075c0.41,0.353,0.831,0.484,1.343,0.484c0.589,0,1.065-0.3,1.065-0.941V51.318z M23.003,49.061
	c-0.124-0.217-0.404-0.407-0.73-0.407c-0.581,0-0.918,0.452-0.918,1.075c0,0.62,0.337,1.073,0.918,1.073
	c0.327,0,0.606-0.178,0.73-0.409V49.061z"/>
<path fill="#FFFFFF" d="M28.915,48.9c-0.151-0.085-0.345-0.128-0.548-0.128c-0.368,0-0.672,0.192-0.75,0.558v2.438h-1.095v-3.94
	h1.095v0.39c0.168-0.287,0.494-0.479,0.881-0.479c0.188,0,0.353,0.035,0.416,0.07V48.9z"/>
<path fill="#FFFFFF" d="M31.555,47.316c-0.353,0-0.652-0.254-0.652-0.627c0-0.36,0.299-0.622,0.652-0.622
	c0.345,0,0.643,0.262,0.643,0.622C32.198,47.062,31.9,47.316,31.555,47.316 M32.099,51.771h-1.091v-3.944h1.091V51.771z"/>
<path fill="#FFFFFF" d="M37.06,51.446c-0.175,0.205-0.563,0.411-0.988,0.411c-1.147,0-1.79-0.926-1.79-2.051
	c0-1.133,0.643-2.063,1.79-2.063c0.424,0,0.813,0.199,0.988,0.413v-2.117h1.1v5.733h-1.1V51.446z M37.06,49.152
	c-0.123-0.262-0.422-0.459-0.74-0.459c-0.591,0-0.943,0.475-0.943,1.112c0,0.625,0.353,1.1,0.943,1.1
	c0.327,0,0.617-0.184,0.74-0.457V49.152z"/>
<path fill="#FFFFFF" d="M42.753,49.307c0-0.377-0.327-0.614-0.882-0.614c-0.396,0-0.768,0.114-1.078,0.321v-0.949
	c0.285-0.174,0.794-0.323,1.317-0.323c1.083,0,1.693,0.554,1.693,1.517v2.512h-1.05v-0.213c-0.132,0.132-0.522,0.279-0.953,0.279
	c-0.792,0-1.455-0.455-1.455-1.276c0-0.748,0.663-1.259,1.525-1.259c0.346,0,0.724,0.114,0.882,0.229V49.307z M42.753,50.412
	c-0.095-0.215-0.387-0.345-0.696-0.345c-0.344,0-0.694,0.147-0.694,0.486c0,0.343,0.351,0.486,0.694,0.486
	c0.309,0,0.602-0.134,0.696-0.345V50.412z"/>
<path fill="#FFFFFF" d="M48.74,51.446c-0.176,0.205-0.564,0.411-0.988,0.411c-1.146,0-1.791-0.926-1.791-2.051
	c0-1.133,0.645-2.063,1.791-2.063c0.423,0,0.812,0.199,0.988,0.413v-2.117h1.103v5.733H48.74V51.446z M48.74,49.152
	c-0.122-0.262-0.421-0.459-0.737-0.459c-0.597,0-0.946,0.475-0.946,1.112c0,0.625,0.35,1.1,0.946,1.1
	c0.324,0,0.615-0.184,0.737-0.457V49.152z"/>
<path fill="#FFFFFF" d="M55.866,49.927c0.028,0.908,0.603,1.342,1.315,1.342c0.441,0,0.758-0.11,1.111-0.372v0.606
	c-0.317,0.252-0.721,0.345-1.189,0.345c-1.127,0-1.889-0.767-1.889-2.001c0-1.216,0.705-2.075,1.748-2.075
	c1.058,0,1.604,0.773,1.604,1.916v0.238H55.866z M55.904,49.406h2.018c-0.025-0.574-0.317-1.065-0.952-1.065
	C56.452,48.341,56.024,48.686,55.904,49.406"/>
<path fill="#FFFFFF" d="M60.944,47.854h0.663v0.498c0.228-0.312,0.653-0.58,1.154-0.58c0.889,0,1.375,0.58,1.375,1.434v2.564h-0.668
	v-2.462c0-0.548-0.275-0.924-0.867-0.924c-0.456,0-0.854,0.308-0.995,0.729v2.657h-0.663V47.854z"/>
<path fill="#FFFFFF" d="M69.622,50.76c0.361,0.333,0.81,0.527,1.288,0.527c0.432,0,0.81-0.161,0.81-0.55
	c0-0.287-0.219-0.447-0.564-0.562l-0.54-0.186c-0.587-0.196-0.984-0.477-0.984-1.11c0-0.692,0.609-1.106,1.385-1.106
	c0.439,0,0.844,0.128,1.165,0.347v0.686c-0.326-0.271-0.688-0.467-1.165-0.467c-0.406,0-0.742,0.178-0.742,0.513
	c0,0.318,0.209,0.42,0.583,0.552l0.598,0.205c0.593,0.202,0.917,0.546,0.917,1.102c0,0.723-0.641,1.139-1.462,1.139
	c-0.512,0-0.994-0.159-1.288-0.385V50.76z"/>
<path fill="#FFFFFF" d="M76.307,51.849c-1.073,0-1.8-0.839-1.8-2.036c0-1.201,0.727-2.038,1.8-2.038
	c1.066,0,1.797,0.837,1.797,2.038C78.104,51.01,77.373,51.849,76.307,51.849 M76.307,48.358c-0.706,0-1.129,0.599-1.129,1.455
	c0,0.852,0.423,1.457,1.129,1.457c0.708,0,1.127-0.604,1.127-1.457C77.434,48.957,77.015,48.358,76.307,48.358"/>
<rect x="80.495" y="46.038" fill="#FFFFFF" width="0.662" height="5.733"/>
<path fill="#FFFFFF" d="M86.916,51.771h-0.669v-0.492c-0.222,0.31-0.636,0.569-1.138,0.569c-0.893,0-1.369-0.569-1.369-1.43v-2.564
	h0.67v2.462c0,0.544,0.266,0.926,0.858,0.926c0.459,0,0.834-0.312,0.979-0.734v-2.654h0.669V51.771z"/>
<path fill="#FFFFFF" d="M91.175,47.773c0.38,0,0.775,0.093,1.052,0.328v0.67c-0.283-0.279-0.627-0.403-1.009-0.403
	c-0.694,0-1.261,0.544-1.261,1.445c0,0.898,0.566,1.445,1.261,1.445c0.382,0,0.727-0.12,1.009-0.407v0.674
	c-0.277,0.238-0.672,0.323-1.052,0.323c-1.056,0-1.887-0.787-1.887-2.036C89.289,48.563,90.12,47.773,91.175,47.773"/>
<path fill="#FFFFFF" d="M94.912,47.099c-0.226,0-0.418-0.196-0.418-0.428c0-0.234,0.192-0.42,0.418-0.42
	c0.24,0,0.434,0.186,0.434,0.42C95.346,46.903,95.152,47.099,94.912,47.099 M95.249,51.771h-0.662v-3.915h0.662V51.771z"/>
<path fill="#FFFFFF" d="M99.41,51.849c-1.073,0-1.799-0.839-1.799-2.036c0-1.201,0.726-2.038,1.799-2.038
	c1.068,0,1.802,0.837,1.802,2.038C101.211,51.01,100.478,51.849,99.41,51.849 M99.41,48.358c-0.704,0-1.127,0.599-1.127,1.455
	c0,0.852,0.423,1.457,1.127,1.457c0.708,0,1.129-0.604,1.129-1.457C100.539,48.957,100.118,48.358,99.41,48.358"/>
<path fill="#FFFFFF" d="M103.593,47.854h0.662v0.498c0.229-0.312,0.654-0.58,1.153-0.58c0.892,0,1.378,0.58,1.378,1.434v2.564h-0.67
	v-2.462c0-0.548-0.273-0.924-0.868-0.924c-0.457,0-0.854,0.308-0.994,0.729v2.657h-0.662V47.854z"/>
<path fill="#FFFFFF" d="M109.773,49.927c0.027,0.908,0.598,1.342,1.315,1.342c0.438,0,0.755-0.11,1.11-0.372v0.606
	c-0.318,0.252-0.725,0.345-1.191,0.345c-1.127,0-1.887-0.767-1.887-2.001c0-1.216,0.706-2.075,1.745-2.075
	c1.06,0,1.604,0.773,1.604,1.916v0.238H109.773z M109.81,49.406h2.016c-0.022-0.574-0.316-1.065-0.952-1.065
	C110.356,48.341,109.932,48.686,109.81,49.406"/>
<path fill="#FFFFFF" d="M114.642,50.76c0.358,0.333,0.811,0.527,1.285,0.527c0.432,0,0.812-0.161,0.812-0.55
	c0-0.287-0.222-0.447-0.566-0.562l-0.537-0.186c-0.591-0.196-0.986-0.477-0.986-1.11c0-0.692,0.606-1.106,1.383-1.106
	c0.442,0,0.846,0.128,1.164,0.347v0.686c-0.326-0.271-0.689-0.467-1.164-0.467c-0.405,0-0.74,0.178-0.74,0.513
	c0,0.318,0.21,0.42,0.58,0.552l0.603,0.205c0.59,0.202,0.917,0.546,0.917,1.102c0,0.723-0.643,1.139-1.466,1.139
	c-0.51,0-0.995-0.159-1.285-0.385V50.76z"/>
<path fill="#FFFFFF" d="M82.516,4.869V4.003H81.55V3.029h2.04v2.384c-0.556,0.566-1.308,0.809-2.056,0.809
	c-1.728,0-2.814-1.208-2.814-2.932c0-1.763,1.228-2.95,2.934-2.95c0.65,0,1.223,0.176,1.635,0.471v1.187
	c-0.469-0.372-0.974-0.576-1.635-0.576c-1.023,0-1.734,0.743-1.734,1.868c0,1.103,0.63,1.872,1.64,1.872
	C81.931,5.162,82.265,5.075,82.516,4.869"/>
<path fill="#FFFFFF" d="M103.82,4.001v2.127h-1.178V0.432h2.348c1.197,0,1.994,0.641,1.994,1.807c0,0.913-0.499,1.486-1.297,1.682
	l1.501,2.208h-1.335l-1.411-2.127H103.82z M103.82,3.029h1.099c0.592,0,0.895-0.314,0.895-0.791c0-0.48-0.302-0.796-0.895-0.796
	h-1.099V3.029z"/>
<path fill="#FFFFFF" d="M125.887,3.838V0.431h1.188v3.286c0,0.974,0.43,1.437,1.179,1.437c0.752,0,1.179-0.463,1.179-1.437V0.431
	h1.188v3.407c0,1.564-0.936,2.384-2.366,2.384C126.834,6.222,125.887,5.402,125.887,3.838"/>
<path fill="#FFFFFF" d="M150.918,4.153v1.976h-1.178V0.432h2.318c1.206,0,2.002,0.649,2.002,1.867c0,1.205-0.796,1.854-2.002,1.854
	H150.918z M151.985,1.443h-1.067v1.699h1.067c0.61,0,0.909-0.353,0.909-0.843C152.894,1.788,152.595,1.443,151.985,1.443"/>
<path fill="#FFFFFF" d="M175.379,6.222c-1.586,0-2.694-1.243-2.694-2.942c0-1.707,1.108-2.938,2.694-2.938s2.698,1.232,2.698,2.938
	C178.077,4.979,176.965,6.222,175.379,6.222 M175.379,1.396c-0.9,0-1.485,0.768-1.485,1.883c0,1.113,0.585,1.884,1.485,1.884
	c0.91,0,1.503-0.771,1.503-1.884C176.882,2.165,176.289,1.396,175.379,1.396"/>
</svg>
