<?xml version="1.0" encoding="utf-8"?>
<!-- Generator: Adobe Illustrator 16.0.0, SVG Export Plug-In . SVG Version: 6.00 Build 0)  -->
<!DOCTYPE svg PUBLIC "-//W3C//DTD SVG 1.1//EN" "http://www.w3.org/Graphics/SVG/1.1/DTD/svg11.dtd">
<svg version="1.1" id="Layer_1" xmlns="http://www.w3.org/2000/svg" xmlns:xlink="http://www.w3.org/1999/xlink" x="0px" y="0px"
	 width="55px" height="65.5px" viewBox="0 0 55 65.5" enable-background="new 0 0 55 65.5" xml:space="preserve">
<g>
	<path fill="#1F3E77" d="M34.124,43.155c0-3.652-2.971-6.624-6.624-6.624s-6.624,2.971-6.624,6.624c0,2.14,1.032,4.127,2.772,5.366
		l-1.265,8.216h10.232l-1.264-8.216C33.092,47.283,34.124,45.295,34.124,43.155z M27.5,39.34c2.104,0,3.814,1.711,3.814,3.815
		c0,1.44-0.813,2.742-2.122,3.397l-0.915,0.457l1.063,6.919h-3.685l1.065-6.919l-0.915-0.457c-1.309-0.656-2.122-1.957-2.122-3.397
		C23.686,41.052,25.396,39.34,27.5,39.34z"/>
	<path fill="#1F3E77" d="M50.118,27.833H4.883C2.19,27.833,0,30.024,0,32.717v27.835c0,2.692,2.19,4.882,4.883,4.882h45.234
		c2.692,0,4.882-2.19,4.882-4.882V32.717C55,30.024,52.81,27.833,50.118,27.833z M50.556,62.944H4.444
		c-1.17,0-2.123-0.951-2.123-2.121V32.446c0-1.132,0.891-2.06,2.009-2.12h46.226c1.17,0,2.123,0.952,2.123,2.124v28.374
		C52.679,61.993,51.726,62.944,50.556,62.944z"/>
	<path fill="#1F3E77" d="M20.207,11.508h14.587v8.697h11.507V10.103C46.301,4.532,41.77,0,36.199,0H18.801
		C13.23,0,8.699,4.532,8.699,10.103v17.062h11.508V11.508z M17.795,8.782l-0.173,15.791h-6.433V10.035
		c0-4.104,3.339-7.442,7.443-7.442h17.733c4.104,0,7.443,3.339,7.443,7.442v7.442h-6.465l0.173-8.696H17.795z"/>
</g>
</svg>
