<?xml version="1.0" encoding="utf-8"?>
<!-- Generator: Adobe Illustrator 15.1.0, SVG Export Plug-In . SVG Version: 6.00 Build 0)  -->
<!DOCTYPE svg PUBLIC "-//W3C//DTD SVG 1.1//EN" "http://www.w3.org/Graphics/SVG/1.1/DTD/svg11.dtd">
<svg xmlns="http://www.w3.org/2000/svg" xmlns:xlink="http://www.w3.org/1999/xlink" version="1.1" id="Capa_1" x="0px" y="0px" width="139.75px" height="48.75px" viewBox="0 0 139.75 48.75" xml:space="preserve">
<g>
	<path fill="#FFFFFF" d="M24.469,46.298c-1.576,0-2.111-0.643-2.111-2.754c0-2.251,0.579-2.92,2.118-2.92   c0.874,0,1.577,0.199,1.729,0.241l-0.165,0.533c-0.087-0.022-0.764-0.198-1.564-0.198c-1.046,0-1.39,0.379-1.39,2.344   c0,1.84,0.298,2.187,1.383,2.187c0.836,0,1.305-0.179,1.559-0.282l0.229,0.521C25.993,46.073,25.399,46.298,24.469,46.298"/>
	<path fill="#FFFFFF" d="M29.362,40.624c1.549,0,2.274,0.776,2.274,1.888v1.913c0,1.146-0.864,1.88-2.23,1.88   c-1.5,0-2.275-0.771-2.275-1.88v-1.913C27.131,41.359,27.996,40.624,29.362,40.624 M29.362,41.2c-0.967,0-1.503,0.461-1.503,1.312   v1.913c0,0.829,0.48,1.306,1.548,1.306c0.967,0,1.502-0.463,1.502-1.306v-1.913C30.908,41.663,30.468,41.2,29.362,41.2"/>
	<polygon fill="#FFFFFF" points="36.152,46.227 33.575,41.915 33.575,46.225 32.847,46.225 32.847,40.702 33.658,40.702    36.234,45.032 36.234,40.701 36.963,40.701 36.963,46.227  "/>
	<polygon fill="#FFFFFF" points="41.702,41.277 39.026,41.277 39.026,43.061 41.428,43.061 41.428,43.636 39.026,43.636    39.026,45.648 41.759,45.648 41.759,46.227 38.299,46.227 38.299,40.7 41.702,40.7  "/>
	<path fill="#FFFFFF" d="M44.805,46.298c-1.576,0-2.111-0.643-2.111-2.754c0-2.251,0.579-2.92,2.117-2.92   c0.873,0,1.576,0.199,1.73,0.241l-0.166,0.533c-0.087-0.022-0.763-0.198-1.564-0.198c-1.045,0-1.391,0.379-1.391,2.344   c0,1.84,0.299,2.187,1.385,2.187c0.837,0,1.305-0.179,1.559-0.282l0.229,0.521C46.329,46.073,45.735,46.298,44.805,46.298"/>
	<polygon fill="#FFFFFF" points="51.358,41.277 49.663,41.277 49.663,46.225 48.934,46.225 48.934,41.277 47.241,41.277    47.241,40.7 51.358,40.7  "/>
	<path fill="#FFFFFF" d="M55.318,46.227l-0.565-1.597h-2.125l-0.566,1.597h-0.758l2.008-5.523h0.759l2.006,5.523H55.318z    M54.575,44.063l-0.885-2.465l-0.885,2.465H54.575z"/>
	<polygon fill="#FFFFFF" points="62.241,46.227 61.895,41.977 60.291,45.48 59.627,45.48 58.021,41.977 57.678,46.227 56.95,46.227    57.409,40.701 58.251,40.701 59.96,44.62 61.669,40.702 62.51,40.702 62.969,46.227  "/>
	<path fill="#FFFFFF" d="M66.262,40.624c1.549,0,2.275,0.776,2.275,1.888v1.913c0,1.146-0.865,1.88-2.23,1.88   c-1.5,0-2.275-0.771-2.275-1.88v-1.913C64.032,41.359,64.897,40.624,66.262,40.624 M66.262,41.2c-0.967,0-1.504,0.461-1.504,1.312   v1.913c0,0.829,0.48,1.306,1.549,1.306c0.967,0,1.502-0.463,1.502-1.306v-1.913C67.809,41.663,67.37,41.2,66.262,41.2"/>
	<path fill="#FFFFFF" d="M71.58,45.729c0.43,0,0.783-0.121,0.884-0.551c0.034-0.144,0.054-0.265,0.054-0.373   c0-0.449-0.33-0.647-1.285-1.139c-1.079-0.555-1.704-0.71-1.704-1.708c0-1,0.751-1.332,1.825-1.332   c0.741,0.001,1.334,0.11,1.703,0.209l-0.119,0.573c-0.34-0.098-0.898-0.206-1.627-0.206c-0.693,0-1.051,0.203-1.051,0.752   c0,0.505,0.28,0.547,1.368,1.108c1.097,0.563,1.625,0.858,1.625,1.623c0,0.176-0.026,0.375-0.083,0.608   c-0.18,0.767-0.863,1.009-1.669,1.009c-0.804,0-1.691-0.166-2.047-0.225L69.54,45.5C69.893,45.568,70.654,45.729,71.58,45.729"/>
	<polygon fill="#FFFFFF" points="79.881,41.277 78.186,41.277 78.186,46.225 77.458,46.225 77.458,41.277 75.764,41.277    75.764,40.7 79.881,40.7  "/>
	<path fill="#FFFFFF" d="M82.945,46.298c-1.545,0-2.092-0.664-2.092-1.637v-3.959h0.729v3.959c0,0.688,0.338,1.067,1.362,1.067   c0.914,0,1.33-0.377,1.33-1.067v-3.959h0.729v3.959C85.004,45.677,84.316,46.298,82.945,46.298"/>
	<path fill="#FFFFFF" d="M88.136,45.729c0.431,0,0.784-0.121,0.886-0.551c0.032-0.144,0.053-0.265,0.053-0.373   c0-0.449-0.331-0.647-1.285-1.139c-1.079-0.555-1.703-0.71-1.703-1.708c0-1,0.751-1.332,1.825-1.332   c0.741,0.001,1.333,0.11,1.7,0.209l-0.118,0.573c-0.339-0.098-0.897-0.206-1.626-0.206c-0.692,0-1.051,0.203-1.051,0.752   c0,0.505,0.279,0.547,1.367,1.108c1.096,0.563,1.627,0.858,1.627,1.623c0,0.176-0.027,0.375-0.084,0.608   c-0.18,0.767-0.865,1.009-1.668,1.009s-1.693-0.166-2.049-0.225l0.086-0.578C86.449,45.568,87.211,45.729,88.136,45.729"/>
	<rect x="92.719" y="40.701" fill="#FFFFFF" width="0.727" height="5.523"/>
	<path fill="#FFFFFF" d="M99.072,42.975v0.993c0,1.615-0.823,2.259-2.051,2.257h-2.197v-5.522h2.164   C98.305,40.701,99.072,41.461,99.072,42.975 M95.553,45.648h1.469c0.83,0,1.322-0.396,1.322-1.682v-0.994   c0-1.22-0.486-1.695-1.355-1.695h-1.436V45.648z"/>
	<polygon fill="#FFFFFF" points="103.727,41.277 101.05,41.277 101.05,43.061 103.453,43.061 103.453,43.636 101.05,43.636    101.05,45.648 103.784,45.648 103.784,46.227 100.324,46.227 100.324,40.7 103.727,40.7  "/>
	<path fill="#FFFFFF" d="M108.46,46.227l-0.563-1.597h-2.127l-0.566,1.597h-0.758l2.008-5.523h0.759l2.008,5.523H108.46z    M107.716,44.063l-0.884-2.465l-0.885,2.465H107.716z"/>
	<path fill="#FFFFFF" d="M111.991,45.729c0.429,0,0.783-0.121,0.885-0.551c0.031-0.144,0.052-0.265,0.052-0.373   c0-0.449-0.329-0.647-1.286-1.139c-1.077-0.555-1.7-0.71-1.7-1.708c0-1,0.75-1.332,1.825-1.332c0.74,0.001,1.33,0.11,1.701,0.209   l-0.121,0.573c-0.339-0.098-0.898-0.206-1.625-0.206c-0.693,0-1.051,0.203-1.051,0.752c0,0.505,0.279,0.547,1.367,1.108   c1.098,0.563,1.625,0.858,1.625,1.623c0,0.176-0.027,0.375-0.082,0.608c-0.18,0.767-0.865,1.009-1.668,1.009   s-1.693-0.166-2.05-0.225l0.086-0.578C110.304,45.568,111.063,45.729,111.991,45.729"/>
	<path fill="#FFFFFF" d="M130.544,11.992c2.43-0.009,4.402,0.929,5.324,1.685l-2.711,3.324c-0.408-0.117-1.469-0.563-2.467-0.549   c-1.392,0-2.888,0.51-4.107,0.974l-3.105,16.698h-5.834l3.283-19.461C123.858,13.136,127.626,12.011,130.544,11.992"/>
	<path fill="#FFFFFF" d="M115.019,27.759c0.592-1.37,0.924-2.878,0.924-4.463c0-6.229-5.066-11.295-11.294-11.295   c-3.836,0-7.228,1.925-9.271,4.856c-6.157-2.62-12.462-4.905-18.874-6.798c-7.062-2.084-14.25-3.719-21.51-4.889   C41.946,3.063,28.675,2.488,15.527,3.394C15.021,1.448,13.264,0,11.161,0C8.667,0,6.636,2.03,6.636,4.524   c0,2.497,2.031,4.527,4.525,4.527c2.307,0,4.194-1.74,4.471-3.974c13.036-0.573,26.119,0.326,38.907,2.717   c7.116,1.328,14.142,3.111,21.021,5.328c6.213,2.004,12.297,4.38,18.232,7.079c-0.281,0.985-0.441,2.021-0.441,3.095   c0,6.229,5.068,11.295,11.299,11.295c3.771,0,7.106-1.866,9.159-4.716c5.52,3.139,10.879,6.568,16.033,10.307   c0.243-0.423,0.559-0.8,0.926-1.113C125.746,35.011,120.478,31.243,115.019,27.759z M11.161,7.081   c-1.408,0-2.555-1.146-2.555-2.557c0-1.408,1.147-2.554,2.555-2.554c1.409,0,2.554,1.146,2.554,2.554   C13.715,5.935,12.569,7.081,11.161,7.081z M104.648,29.864c-3.623,0-6.568-2.946-6.568-6.568c-0.001-3.623,2.943-6.568,6.568-6.568   c3.619,0,6.566,2.945,6.566,6.568C111.215,26.917,108.268,29.864,104.648,29.864z"/>
	<path fill="#FFFFFF" d="M133.549,47.78c-3.01,0-5.462-2.451-5.462-5.464c0-3.012,2.452-5.461,5.462-5.461   c3.015,0,5.463,2.449,5.463,5.461C139.012,45.329,136.563,47.78,133.549,47.78 M133.549,39.22c-1.707,0-3.095,1.39-3.095,3.099   c0,1.707,1.388,3.096,3.095,3.096c1.709,0,3.099-1.389,3.099-3.096C136.647,40.609,135.258,39.22,133.549,39.22"/>
	<path fill="#FFFFFF" d="M9.377,30.359c1.313,0,2.498-0.301,3.044-1.579c0.208-0.479,0.323-0.88,0.323-1.236   c0-0.992-0.891-1.651-3.167-2.723c-3.173-1.456-6.507-2.417-6.507-6.164c0-0.412,0.041-0.859,0.126-1.343   c0.729-4.135,4.567-5.28,9.191-5.273c3.311,0.004,6.1,0.54,8.073,1.041l-1.289,3.813c-1.469-0.371-3.787-0.701-6.324-0.701   c-2.303,0-3.628,0.646-3.896,2.037c-0.03,0.15-0.044,0.285-0.044,0.409c0,0.915,0.839,1.243,3.447,2.454   c4.177,1.846,6.456,3.16,6.456,5.91c0,0.992-0.297,2.17-0.908,3.629C16.439,33.757,13.083,34.6,9.31,34.6   c-3.483,0-7.22-0.634-9.31-0.967l1.078-3.961C2.839,29.941,5.72,30.359,9.377,30.359"/>
	<path fill="#FFFFFF" d="M31.909,34.557c-5.297,0.036-8.728-1.898-8.728-7.896c0-1.122,0.12-2.385,0.37-3.805   c1.101-6.25,2.23-10.832,11.981-10.832c6.819,0,8.493,2.557,8.493,6.344c0,1.799-0.379,3.879-0.765,6.092l-0.063,0.387   l-14.152,0.217c-0.107,0.834-0.17,1.539-0.17,2.135c0,2.432,1.048,3.025,4.285,3.025c0.261,0,0.532-0.005,0.82-0.012   c2.571-0.02,4.276-0.368,5.71-0.52l1.082,3.686C38.224,33.943,35.283,34.557,31.909,34.557 M38.549,18.763   c0-1.936-0.786-2.584-3.368-2.584c-4.051,0-4.718,1.264-5.472,5.107h8.595C38.454,20.271,38.549,19.438,38.549,18.763"/>
	<path fill="#FFFFFF" d="M60.769,12.004c4.562-0.019,7.838,1.903,7.838,6.07c0,0.511-0.051,1.056-0.151,1.634l-2.543,14.416h-5.837   l2.48-14.064c0.08-0.455,0.12-0.859,0.12-1.217c0-1.877-1.076-2.461-2.883-2.453c-1.818,0.001-3.341,0.539-4.528,1.035   l-3.103,16.699h-5.835l3.286-19.447C52.807,13.147,56.973,12.022,60.769,12.004"/>
	<polygon fill="#FFFFFF" points="77.893,29.968 89.579,29.968 88.846,34.124 70.09,34.124 70.664,30.509 84.477,16.616    73.835,16.616 74.566,12.461 92.38,12.461 91.822,15.96  "/>
</g>
</svg>
