<?xml version="1.0" encoding="utf-8"?>
<!-- Generator: Adobe Illustrator 16.0.0, SVG Export Plug-In . SVG Version: 6.00 Build 0)  -->
<!DOCTYPE svg PUBLIC "-//W3C//DTD SVG 1.1//EN" "http://www.w3.org/Graphics/SVG/1.1/DTD/svg11.dtd">
<svg version="1.1" id="Layer_1" xmlns="http://www.w3.org/2000/svg" xmlns:xlink="http://www.w3.org/1999/xlink" x="0px" y="0px"
	 width="80.167px" height="49px" viewBox="0 0 80.167 49" enable-background="new 0 0 80.167 49" xml:space="preserve">
<g>
	<path fill="#061C3E" d="M76.479,0H3.519C1.579,0,0,1.579,0,3.52v41.805c0,1.941,1.579,3.521,3.519,3.521h72.96
		c1.941,0,3.521-1.58,3.521-3.521V3.52C80,1.579,78.42,0,76.479,0z M76.479,46.538H3.519c-0.668,0-1.211-0.544-1.211-1.213V3.52
		c0-0.668,0.543-1.211,1.211-1.211h72.96c0.668,0,1.212,0.543,1.212,1.211v41.805C77.691,45.994,77.147,46.538,76.479,46.538z"/>
	<path fill="#061C3E" d="M47.478,11.134h-3.819v-0.208c0-0.533-0.434-0.966-0.966-0.966H37.77c-0.533,0-0.966,0.433-0.966,0.966
		v0.208h-3.819c-0.533,0-0.966,0.433-0.966,0.964v8.697c0,0.533,0.433,0.966,0.966,0.966h14.494c0.533,0,0.967-0.433,0.967-0.966
		v-8.697C48.445,11.567,48.011,11.134,47.478,11.134z M38.736,12.098v-0.205h2.992v0.205c0,0.534,0.434,0.967,0.966,0.967h3.819
		l0,2.416c-0.157-0.232-0.409-0.396-0.71-0.396H34.657c-0.299,0-0.55,0.162-0.706,0.394v-2.415h3.819
		C38.302,13.064,38.736,12.631,38.736,12.098z M33.951,16.432c0.157,0.232,0.409,0.394,0.709,0.394h11.143
		c0.301,0,0.553-0.163,0.709-0.395l0,3.399H33.951V16.432z"/>
	<path fill="#061C3E" d="M55.757,21.762H70.25c0.532,0,0.966-0.433,0.966-0.966v-8.69c0.003-0.258-0.095-0.501-0.276-0.685
		c-0.182-0.185-0.426-0.287-0.687-0.287h-3.822v-0.208c0-0.533-0.434-0.966-0.966-0.966h-4.922c-0.532,0-0.966,0.433-0.966,0.966
		v0.208h-3.821c-0.533,0-0.966,0.433-0.966,0.964v8.697C54.791,21.329,55.224,21.762,55.757,21.762z M61.513,12.098v-0.205h2.993
		v0.205c0,0.534,0.434,0.967,0.967,0.967h3.818v2.424c-0.156-0.236-0.411-0.403-0.716-0.403H57.432
		c-0.298,0-0.549,0.162-0.705,0.393v-2.414h3.82C61.08,13.064,61.513,12.631,61.513,12.098z M56.727,16.433
		c0.156,0.231,0.408,0.393,0.708,0.393h11.14c0.305,0,0.561-0.167,0.716-0.403v3.407H56.727V16.433z"/>
	<path fill="#061C3E" d="M9.746,21.762H24.24c0.534,0,0.967-0.433,0.967-0.966v-8.701c-0.004-0.53-0.438-0.961-0.969-0.961H20.42
		v-0.208c0-0.533-0.434-0.966-0.966-0.966h-4.922c-0.532,0-0.966,0.433-0.966,0.966v0.208h-3.82c-0.532,0-0.966,0.433-0.966,0.964
		v8.697C8.78,21.329,9.214,21.762,9.746,21.762z M15.498,12.098v-0.205h2.993v0.205c0,0.534,0.434,0.967,0.966,0.967h3.819l0,2.42
		c-0.156-0.234-0.41-0.399-0.712-0.399H11.419c-0.3,0-0.552,0.163-0.708,0.396v-2.418h3.82
		C15.064,13.064,15.498,12.631,15.498,12.098z M10.711,16.429c0.156,0.233,0.409,0.397,0.711,0.397h11.14
		c0.303,0,0.556-0.165,0.712-0.399l-0.001,3.403H10.711V16.429z"/>
	<path fill="#061C3E" d="M47.034,26.13H32.54c-0.532,0-0.965,0.433-0.965,0.966v8.696c0,0.533,0.433,0.966,0.965,0.966h3.821v0.209
		c0,0.531,0.434,0.964,0.966,0.964h4.923c0.534,0,0.967-0.433,0.967-0.964v-0.209h3.817c0.533,0,0.967-0.433,0.967-0.966v-8.697
		C48.001,26.563,47.567,26.13,47.034,26.13z M41.284,35.792V36h-2.993v-0.208c0-0.532-0.434-0.965-0.966-0.965h-3.821V32.41
		c0.156,0.234,0.41,0.399,0.713,0.399h11.141c0.298,0,0.55-0.16,0.707-0.39v2.408H42.25C41.718,34.827,41.284,35.26,41.284,35.792z
		 M46.065,31.457c-0.157-0.229-0.409-0.39-0.707-0.39H34.217c-0.303,0-0.557,0.165-0.713,0.399v-3.404h12.561V31.457z"/>
	<path fill="#061C3E" d="M24.238,26.13H9.746c-0.532,0-0.966,0.433-0.966,0.966v8.696c0,0.533,0.434,0.966,0.966,0.966h3.822v0.209
		c0,0.531,0.433,0.964,0.965,0.964h4.923c0.533,0,0.967-0.433,0.967-0.964v-0.209h3.818c0.533,0,0.967-0.433,0.967-0.966v-8.703
		C25.202,26.561,24.767,26.13,24.238,26.13z M18.489,35.792V36h-2.991v-0.208c0-0.532-0.434-0.965-0.966-0.965h-3.82v-2.416
		c0.156,0.234,0.409,0.397,0.711,0.397h11.14c0.301,0,0.553-0.163,0.709-0.396v2.414h-3.817
		C18.922,34.827,18.489,35.26,18.489,35.792z M23.272,31.462c-0.156-0.232-0.409-0.396-0.709-0.396h-11.14
		c-0.302,0-0.555,0.164-0.711,0.397v-3.402h12.561V31.462z"/>
	<path fill="#061C3E" d="M70.254,26.13H55.76c-0.533,0-0.966,0.433-0.966,0.966v8.696c0,0.533,0.434,0.966,0.966,0.966h3.82v0.209
		c0,0.531,0.434,0.964,0.967,0.964h4.922c0.532,0,0.966-0.433,0.966-0.964v-0.209h3.821c0.533,0,0.966-0.433,0.966-0.966v-8.704
		C71.216,26.561,70.781,26.13,70.254,26.13z M64.503,35.792V36h-2.992v-0.208c0-0.532-0.434-0.965-0.967-0.965h-3.82v-2.419
		c0.156,0.236,0.41,0.401,0.713,0.401h11.142c0.299,0,0.55-0.161,0.707-0.392v2.41H65.47C64.937,34.827,64.503,35.26,64.503,35.792z
		 M69.285,31.458c-0.157-0.23-0.408-0.392-0.707-0.392H57.437c-0.304,0-0.558,0.165-0.713,0.401v-3.406h12.562V31.458z"/>
	<rect x="12.063" y="6.698" fill="#061C3E" width="9.861" height="2.172"/>
	<rect x="34.985" y="6.698" fill="#061C3E" width="9.861" height="2.172"/>
	<rect x="57.761" y="6.698" fill="#061C3E" width="9.861" height="2.172"/>
	<rect x="12.063" y="39.974" fill="#061C3E" width="9.861" height="2.171"/>
	<rect x="34.985" y="39.974" fill="#061C3E" width="9.861" height="2.171"/>
	<rect x="57.761" y="39.974" fill="#061C3E" width="9.861" height="2.171"/>
</g>
</svg>
