<?xml version="1.0" encoding="utf-8"?>
<!-- Generator: Adobe Illustrator 16.0.0, SVG Export Plug-In . SVG Version: 6.00 Build 0)  -->
<!DOCTYPE svg PUBLIC "-//W3C//DTD SVG 1.1//EN" "http://www.w3.org/Graphics/SVG/1.1/DTD/svg11.dtd">
<svg version="1.1" id="Layer_1" xmlns="http://www.w3.org/2000/svg" xmlns:xlink="http://www.w3.org/1999/xlink" x="0px" y="0px"
	 width="70.167px" height="59.833px" viewBox="0 0 70.167 59.833" enable-background="new 0 0 70.167 59.833" xml:space="preserve">
<g>
	<path fill="#061C3E" d="M18.257,49.287c5.25,0,9.522-3.472,9.522-7.739V7.743c0-4.27-4.271-7.743-9.522-7.743
		S8.735,3.473,8.735,7.743v33.805C8.735,45.815,13.006,49.287,18.257,49.287z M18.257,2.23c3.291,0,7.266,2.187,7.266,4.901v35.027
		c0,2.714-3.975,4.901-7.266,4.901c-3.29,0-7.308-2.261-7.308-4.901V7.131C10.949,4.417,14.947,2.23,18.257,2.23z"/>
	<path fill="#061C3E" d="M35.454,20.251H64.09V7.373H35.454V20.251z M61.859,9.643v8.338H37.685V9.643H61.859z"/>
	<path fill="#061C3E" d="M35.454,43.886h8.939v-6.969h-8.939V43.886z M42.244,38.933v2.938h-4.641v-2.938H42.244z"/>
	<path fill="#061C3E" d="M35.454,51.765h8.939v-6.969h-8.939V51.765z M42.244,46.811v2.941h-4.641v-2.941H42.244z"/>
	<path fill="#061C3E" d="M55.151,43.886h8.939v-6.969h-8.939V43.886z M61.941,38.933v2.938H57.3v-2.938H61.941z"/>
	<path fill="#061C3E" d="M64.545,3.432H29.46v39.924c0,5.138-5.026,9.318-11.203,9.318c-6.193,0-11.232-4.18-11.232-9.318V3.432
		H5.454C2.447,3.432,0,5.879,0,8.887V54.19c0,3.007,2.447,5.454,5.454,5.454h59.091c3.008,0,5.455-2.447,5.455-5.454V8.887
		C70,5.879,67.553,3.432,64.545,3.432z M65.14,57.132H4.856c-1.37,0-2.483-1.114-2.483-2.484V8.43c0-1.761,1.248-2.235,2.07-2.357
		v37.429c0,6.507,6.045,11.802,13.476,11.802c8.124,0,14.02-4.924,14.02-11.709V5.946H65.14c1.371,0,2.485,1.114,2.485,2.483v46.218
		C67.625,56.018,66.51,57.132,65.14,57.132z"/>
	<path fill="#061C3E" d="M45.365,36.008h8.939v-6.97h-8.939V36.008z M52.153,31.055v2.938h-4.643v-2.938H52.153z"/>
	<path fill="#061C3E" d="M55.151,51.765h8.939v-6.969h-8.939V51.765z M61.941,46.811v2.941H57.3v-2.941H61.941z"/>
	<path fill="#061C3E" d="M45.365,43.886h8.939v-6.969h-8.939V43.886z M52.153,38.933v2.938h-4.643v-2.938H52.153z"/>
	<path fill="#061C3E" d="M55.151,36.008h8.939v-6.97h-8.939V36.008z M61.941,31.055v2.938H57.3v-2.938H61.941z"/>
	<path fill="#061C3E" d="M35.454,36.008h8.939v-6.97h-8.939V36.008z M42.244,31.055v2.938h-4.641v-2.938H42.244z"/>
	<path fill="#061C3E" d="M45.365,51.765h8.939v-6.969h-8.939V51.765z M52.153,46.811v2.941h-4.643v-2.941H52.153z"/>
	<path fill="#061C3E" d="M45.365,28.13h8.939v-6.972h-8.939V28.13z M52.153,23.175v2.94h-4.643v-2.94H52.153z"/>
	<path fill="#061C3E" d="M35.454,28.13h8.939v-6.972h-8.939V28.13z M42.244,23.175v2.94h-4.641v-2.94H42.244z"/>
	<path fill="#061C3E" d="M55.151,28.13h8.939v-6.972h-8.939V28.13z M61.941,23.175v2.94H57.3v-2.94H61.941z"/>
</g>
</svg>
