<?xml version="1.0" encoding="utf-8"?>
<!-- Generator: Adobe Illustrator 16.0.0, SVG Export Plug-In . SVG Version: 6.00 Build 0)  -->
<!DOCTYPE svg PUBLIC "-//W3C//DTD SVG 1.1//EN" "http://www.w3.org/Graphics/SVG/1.1/DTD/svg11.dtd">
<svg version="1.1" id="Layer_1" xmlns="http://www.w3.org/2000/svg" xmlns:xlink="http://www.w3.org/1999/xlink" x="0px" y="0px"
	 width="80.167px" height="59.833px" viewBox="0 0 80.167 59.833" enable-background="new 0 0 80.167 59.833" xml:space="preserve">
<g>
	<path fill="#061C3E" d="M27.127,45.636c0-0.546-0.326-1.029-0.803-1.199c-0.469-0.178-0.986-0.066-1.321,0.282
		c-0.143,0.082-0.934,0.466-3.129,0.466c-2.298,0-3.276-0.472-3.279-0.472c-0.378-0.225-0.874-0.23-1.267-0.011
		c-0.392,0.225-0.635,0.644-0.635,1.095l0.003,4.727c-0.015,0.212-0.107,2.116,1.24,3.563c0.913,0.979,2.211,1.477,3.859,1.477
		c1.746,0,3.113-0.514,4.064-1.528c1.396-1.486,1.271-3.421,1.27-3.421L27.127,45.636z M21.794,53.044
		c-0.915,0-1.591-0.225-2.009-0.666c-0.578-0.615-0.581-1.555-0.575-1.764v-3.127c0.785,0.144,1.677,0.217,2.663,0.217
		c1.055,0,1.971-0.078,2.736-0.229l0.002,3.199c0.001,0.04,0.021,0.987-0.587,1.635C23.566,52.797,22.817,53.044,21.794,53.044z"/>
	<path fill="#061C3E" d="M66.34,17.12l-1.064-0.42C49.583,10.463,22.024,0,13.764,0c-1.07,0-1.869,0.168-2.443,0.515
		c-6.328,3.815-5.441,15.251-5.097,18.2c-0.525,0.498-0.887,1.132-1.056,1.847c-0.386,1.638,0.17,3.871,2.89,5.229
		c0.512,0.256,1.811,0.882,3.624,1.735c0,0.015-0.001,0.03,0,0.045c0.074,2.626,1.754,3.713,2.982,4.507
		c0.685,0.442,1.278,0.822,1.529,1.364c0.271,0.584,0.202,1.009,0.05,1.946c-0.145,0.89-0.342,2.109-0.255,3.968
		c0.172,3.736,3.147,5.437,5.837,5.437h0.105c2.047,0,5.14,0,6.369-4.228c0.275-0.951,0.724-1.272,1.776-1.272
		c0.566,0,1.214,0.098,1.901,0.201l0.083,0.013c0.753,0.112,1.531,0.228,2.309,0.228c0.717,0,1.34-0.1,1.909-0.304
		c0.523-0.191,0.978-0.399,1.396-0.613c4.13,1.565,7.537,2.643,9.204,2.702h0.051c0.794,0,1.603-0.458,2.527-1.434l1.818,0.931
		c0.325,0.165,0.724,0.178,1.033,0.053c0.101-0.038,2.485-0.97,4.396-4.508c1.812-3.351,1.581-6.038,1.548-6.336
		c-0.046-0.4-0.283-0.759-0.633-0.957l-1.618-0.925c0.084-0.253,0.157-0.494,0.217-0.721c0.875,0.33,1.773,0.496,2.679,0.496
		c4.645,0,9.1-3.88,9.691-7.094C68.912,19.238,68.071,17.777,66.34,17.12z M15.886,29.48c1.975,1.02,4.766,2.389,8.479,4.04
		c4.711,2.095,8.25,3.458,10.33,4.214c-0.739,0.041-1.714-0.084-2.428-0.193l-0.069-0.01c-0.707-0.105-1.438-0.214-2.126-0.214
		c-1.918,0-3.155,0.907-3.675,2.697c-0.813,2.805-2.427,2.805-4.469,2.805h-0.21c-1.79,0-3.646-1.099-3.761-3.554
		c-0.076-1.645,0.096-2.705,0.234-3.56c0.17-1.05,0.317-1.958-0.209-3.096c-0.487-1.049-1.379-1.627-2.247-2.188
		c-0.853-0.55-1.545-1.025-1.872-1.876C14.504,28.843,15.175,29.154,15.886,29.48z M58.894,25.58c-1.334,0-2.541-0.484-3.568-1.42
		c-0.607-0.611-1.431-1.24-2.439-1.863c-2.7-1.736-6.844-3.525-10.001-3.608L42.77,18.68c-0.42-0.031-0.789-0.008-1.125,0.042
		c-2.031,0.304-3.491,2.128-5.064,4.095c-1.301,1.623-2.646,3.3-4.128,3.733c-0.001,0.001-0.046,0.012-0.158,0.012
		c-2.271,0-10.134-3.323-12.71-4.41l-2.244-0.993c-2.67-1.189-5.696-2.536-7.672-3.236c-0.312-0.109-0.645-0.168-0.988-0.176
		C8.371,14.359,8.039,5.461,12.633,2.689c0.011-0.006,0.261-0.153,1.131-0.153c5.795,0,23.757,5.869,50.576,16.523l1.093,0.431
		c0.587,0.224,0.757,0.505,0.654,1.074C65.765,22.326,62.582,25.58,58.894,25.58z M9.191,23.523
		c-1.705-0.854-1.653-1.946-1.552-2.377c0.112-0.475,0.435-0.817,0.81-0.861c0.25,0.013,0.573,0.101,0.961,0.262
		c1.114,0.466,2.513,1.072,4.071,1.748c1.578,0.684,3.297,1.428,5.029,2.16c5.124,2.26,10.822,4.672,13.589,4.672
		c0.402,0,0.745-0.043,1.047-0.133c2.276-0.665,3.883-2.672,5.439-4.615c1.172-1.468,2.384-2.985,3.44-3.145
		c0.103-0.016,0.215-0.019,0.331-0.019l0.403,0.005c2.501,0.125,6.449,1.791,8.88,3.286c0.777,0.513,1.348,0.95,1.747,1.336
		c0.077,0.074,0.16,0.137,0.243,0.199l0.057,0.033c0.131,0.151,0.203,0.25,0.241,0.316c-0.015,0.157-0.105,0.648-0.592,1.89
		l-0.093,0.163c-0.224,0.525-1.046,2.421-2.227,4.735c-1.246,2.44-2.705,4.31-2.877,4.528L48.07,37.81
		c-0.098,0.122-0.197,0.244-0.292,0.351c-0.524,0.59-0.822,0.77-0.918,0.816C41.732,38.67,14.962,26.409,9.191,23.523z
		 M51.077,38.021c0.209-0.307,0.439-0.666,0.671-1.039c0.568-0.886,1.082-1.776,1.541-2.676c0.659-1.224,1.262-2.449,1.762-3.578
		l0.677,0.386c-0.038,0.811-0.259,2.383-1.262,4.239c-0.967,1.79-2.047,2.695-2.642,3.092l-0.769-0.394
		C51.063,38.042,51.07,38.031,51.077,38.021z"/>
	<path fill="#061C3E" d="M66.156,36.554h-6.447c-0.6,0-1.087,0.489-1.087,1.089v3.958c0,0.6,0.488,1.087,1.087,1.087
		c0.599,0,1.087-0.488,1.087-1.087V38.73h5.361c0.6,0,1.088-0.488,1.088-1.087C67.245,37.042,66.756,36.554,66.156,36.554z"/>
	<path fill="#061C3E" d="M78.912,36.554h-6.447c-0.6,0-1.088,0.489-1.088,1.089c0,0.6,0.488,1.088,1.088,1.088h5.362v2.87
		c0,0.6,0.488,1.088,1.087,1.088c0.599,0,1.086-0.489,1.086-1.088v-3.958C80,37.042,79.512,36.554,78.912,36.554z"/>
	<path fill="#061C3E" d="M78.912,48.558c-0.6,0-1.088,0.487-1.088,1.087v2.871h-5.361c-0.599,0-1.087,0.489-1.087,1.088
		c0,0.6,0.488,1.088,1.087,1.088h6.448c0.6,0,1.087-0.488,1.087-1.088v-3.952c0.002-0.292-0.109-0.568-0.315-0.775
		C79.478,48.671,79.204,48.558,78.912,48.558z"/>
	<path fill="#061C3E" d="M66.156,52.516h-5.36v-2.87c0-0.6-0.489-1.088-1.089-1.088s-1.088,0.488-1.088,1.088v3.956
		c0,0.601,0.488,1.089,1.088,1.089h6.446c0.601,0,1.089-0.489,1.089-1.087c0.001-0.289-0.111-0.562-0.316-0.767
		C66.721,52.629,66.447,52.516,66.156,52.516z"/>
	<path fill="#061C3E" d="M15.074,44.685h-5.038l-2.44-4.794c-0.203-0.451-0.656-0.742-1.154-0.742h-5.16
		C0.563,39.148,0,39.711,0,40.431v17.712c0,0.719,0.563,1.281,1.281,1.281h6.098c0.509,0,0.971-0.303,1.182-0.781l1.781-4.266h4.732
		c0.719,0,1.281-0.563,1.281-1.281v-7.131C16.355,45.248,15.792,44.685,15.074,44.685z M13.792,47.247v4.569H9.482
		c-0.508,0-0.97,0.302-1.181,0.781L6.52,56.864H2.564V41.711h3.098l2.439,4.787c0.2,0.455,0.653,0.749,1.156,0.749H13.792z"/>
</g>
</svg>
